<?xml version="1.0" encoding="utf-8"?>
<?xml-stylesheet type="text/xsl" href="rss1.xsl"?>
<rss version="2.0" xmlns:atom="http://www.w3.org/2005/Atom" xmlns:content="http://purl.org/rss/1.0/modules/content/" xmlns:dc="http://purl.org/dc/elements/1.1/" xmlns:media="http://search.yahoo.com/mrss/">
<channel>
 <title>Getty</title>
 <link>http://www.gettyimg.com/</link>
 <atom:link href="http://www.gettyimg.com/" rel="self" type="application/rss+xml" />

 
                <item>
                <title><![CDATA[【HD Live Performances】HDTV - Festival De Verao Salvador 2024 - 28/01 - HDTV 1080P MP2 H264-chmt]]></title>
                <link><![CDATA[https://sharemania.us/threads/festival-de-verao-salvador-2024-28-01-hdtv-1080p-mp2-h264-chmt.236690/]]></link>
                <description><![CDATA[<article>
<blockquote class="messageText SelectQuoteContainer ugc baseHtml">
<img src="https://i.imgur.com/p6qBDjM.jpeg" class="bbCodeImage LbImage" alt="[​IMG]" data-url="https://i.imgur.com/p6qBDjM.jpeg" style=""> <br>
<ul>
<li>Àttooxxá - Palco Ponte</li>
<li>Glória Groove chama Péricles - Palco Cais</li>
<li>Thiaguinho chama Maria Rita - Palco Ponte</li>
<li>Lulu Santos chama Gabriel O Pensador - Palco Cais</li>
<li>Daniela Mercury chama Ilê Aiyê e Margareth Menezes - Palco Ponte</li>
<li>Leo Santana chama Luisa Sonza - Palco Cais</li>
<li>Caetano Veloso - Palco Ponte</li>
<li>Seu Jorge chama Mano Brown - Palco Ponte</li>
</ul><br>
<div class="ToggleTriggerAnchor bbCodeSpoilerContainer">
<button type="button" class="button bbCodeSpoilerButton ToggleTrigger Tooltip JsOnly" data-target="> .SpoilerTarget"><span>Spoiler: <span class="SpoilerTitle">MediaInfo</span></span></button>
<div class="SpoilerTarget bbCodeSpoilerText">General<br>
ID : 1 (0x1)<br>
Complete name : C:\acervo\Festival.De.Verao.Salvador.28.01.2024.HDTV.1080P.MP2.H264-chmt.ts<br>
Format : MPEG-TS<br>
File size : 34.7 GiB<br>
Duration : 12 h 18 min<br>
Overall bit rate mode : Variable<br>
Overall bit rate : 6 716 kb/s<br>
<br>
Video<br>
ID : 256 (0x100)<br>
Menu ID : 1 (0x1)<br>
Format : AVC<br>
Format/Info : Advanced Video Codec<br>
Format profile : High@L4<br>
Format settings, CABAC : Yes<br>
Format settings, RefFrames : 4 frames<br>
Format settings, GOP : M=4, N=32<br>
Codec ID : 27<br>
Duration : 12 h 18 min<br>
Bit rate : 5 996 kb/s<br>
Width : 1 920 pixels<br>
Height : 1 080 pixels<br>
Display aspect ratio : 16:9<br>
Frame rate : 29.970 (30000/1001) FPS<br>
Color space : YUV<br>
Chroma subsampling : 4:2:0<br>
Bit depth : 8 bits<br>
Scan type : Interlaced<br>
Scan type, store method : Separated fields<br>
Scan order : Top Field First<br>
Bits/(Pixel*Frame) : 0.096<br>
Stream size : 30.9 GiB (89%)<br>
Color range : Limited<br>
Color primaries : BT.709<br>
Transfer characteristics : BT.709<br>
Matrix coefficients : BT.709<br>
<br>
Audio<br>
ID : 257 (0x101)<br>
Menu ID : 1 (0x1)<br>
Format : MPEG Audio<br>
Format version : Version 1<br>
Format profile : Layer 2<br>
Codec ID : 3<br>
Duration : 12 h 18 min<br>
Bit rate mode : Constant<br>
Bit rate : 384 kb/s<br>
Channel(s) : 2 channels<br>
Sampling rate : 48.0 kHz<br>
Compression mode : Lossy<br>
Delay relative to video : -1 s 530 ms<br>
Stream size : 1.98 GiB (6%)<br>
Language : Portuguese<br>
<br>
Menu<br>
ID : 4096 (0x1000)<br>
Menu ID : 1 (0x1)<br>
Duration : 12 h 18 min<br>
List : 256 (0x100) (AVC) / 257 (0x101) (MPEG Audio, Portuguese)<br>
Language : / Portuguese<br>
Service name : Service01<br>
Service provider : FFmpeg<br>
Service type : digital television</div>
</div><br>
Link:<br>
<div class="bbCodeBlock bbCodeVfcHH HiddenContent">
<div class="attribution type">Hidden Content:</div>
<blockquote>You must reply before you can see the hidden data contained here.</blockquote>
</div>
<div class="messageTextEndMarker">&nbsp;</div>
</blockquote>
</article>]]></description>
                <author><![CDATA[chmt]]></author>
                </item>

                
                <item>
                <title><![CDATA[【Singles (lossless)】FLAC - Hilary Duff - Fly (2004, CD Single)]]></title>
                <link><![CDATA[https://sharemania.us/threads/hilary-duff-fly-2004-cd-single.236689/]]></link>
                <description><![CDATA[<article>
<blockquote class="messageText SelectQuoteContainer ugc baseHtml">
Finally found one of the remixes of this song without spending money in amazon where it was too expensive, LOL... ENJOY! (uploaded by me in this server)<img src="styles/default/xenforo/clear.png" class="mceSmilieSprite mceSmilie35" alt=":blush:" title="Blush    :blush:">.<br>
<img src="https://i.discogs.com/qxPYCeDLxbVBn2s51uDvtlN-qF-kQM2l029uKZXOVPE/rs:fit/g:sm/q:90/h:515/w:595/czM6Ly9kaXNjb2dz/LWRhdGFiYXNlLWlt/YWdlcy9SLTQyMjI2/NzQtMTM1ODk3MDA0/Ny05MDIzLmpwZWc.jpeg" class="bbCodeImage LbImage" alt="[​IMG]" data-url="https://i.discogs.com/qxPYCeDLxbVBn2s51uDvtlN-qF-kQM2l029uKZXOVPE/rs:fit/g:sm/q:90/h:515/w:595/czM6Ly9kaXNjb2dz/LWRhdGFiYXNlLWlt/YWdlcy9SLTQyMjI2/NzQtMTM1ODk3MDA0/Ny05MDIzLmpwZWc.jpeg" style=""> <img src="https://i.discogs.com/xBGAR_MEOhFp3YH6M0cF76idiw_aRBCb67Qken-0t0k/rs:fit/g:sm/q:90/h:520/w:599/czM6Ly9kaXNjb2dz/LWRhdGFiYXNlLWlt/YWdlcy9SLTQyMjI2/NzQtMTM1ODk3MDEx/MS02Mzc0LmpwZWc.jpeg" class="bbCodeImage LbImage" alt="[​IMG]" data-url="https://i.discogs.com/xBGAR_MEOhFp3YH6M0cF76idiw_aRBCb67Qken-0t0k/rs:fit/g:sm/q:90/h:520/w:599/czM6Ly9kaXNjb2dz/LWRhdGFiYXNlLWlt/YWdlcy9SLTQyMjI2/NzQtMTM1ODk3MDEx/MS02Mzc0LmpwZWc.jpeg" style=""><br>
1 Fly 3:45<br>
2 Fly (Remix By Dan Chase) 3:27<br>
<div class="bbCodeBlock bbCodeVfcHH HiddenContent">
<div class="attribution type">Hidden Content:</div>
<blockquote>You must either reply or click 'Like' to see the hidden information contained here.</blockquote>
</div>
<div class="messageTextEndMarker">&nbsp;</div>
</blockquote>
</article>]]></description>
                <author><![CDATA[rominuchiis]]></author>
                </item>

                </channel></rss>